<?xml version="1.0" standalone="no"?>
<!DOCTYPE svg PUBLIC "-//W3C//DTD SVG 20010904//EN"
  "http://www.w3.org/TR/2001/REC-SVG-20010904/DTD/svg10.dtd">
<svg width="23" height="23">
  <circle cx="0" cy="0" r="1" fill="white"/>
  <circle cx="1" cy="0" r="1" fill="white"/>
  <circle cx="2" cy="0" r="1" fill="white"/>
  <circle cx="3" cy="0" r="1" fill="white"/>
  <circle cx="4" cy="0" r="1" fill="white"/>
  <circle cx="5" cy="0" r="1" fill="white"/>
  <circle cx="6" cy="0" r="1" fill="white"/>
  <circle cx="7" cy="0" r="1" fill="white"/>
  <circle cx="8" cy="0" r="1" fill="white"/>
  <circle cx="9" cy="0" r="1" fill="white"/>
  <circle cx="10" cy="0" r="1" fill="white"/>
  <circle cx="11" cy="0" r="1" fill="white"/>
  <circle cx="12" cy="0" r="1" fill="white"/>
  <circle cx="13" cy="0" r="1" fill="white"/>
  <circle cx="14" cy="0" r="1" fill="white"/>
  <circle cx="15" cy="0" r="1" fill="white"/>
  <circle cx="16" cy="0" r="1" fill="white"/>
  <circle cx="17" cy="0" r="1" fill="white"/>
  <circle cx="18" cy="0" r="1" fill="white"/>
  <circle cx="19" cy="0" r="1" fill="white"/>
  <circle cx="20" cy="0" r="1" fill="white"/>
  <circle cx="21" cy="0" r="1" fill="white"/>
  <circle cx="22" cy="0" r="1" fill="white"/>
  <circle cx="0" cy="1" r="1" fill="white"/>
  <circle cx="1" cy="1" r="1" fill="white"/>
  <circle cx="2" cy="1" r="1" fill="white"/>
  <circle cx="3" cy="1" r="1" fill="white"/>
  <circle cx="4" cy="1" r="1" fill="white"/>
  <circle cx="5" cy="1" r="1" fill="white"/>
  <circle cx="6" cy="1" r="1" fill="white"/>
  <circle cx="7" cy="1" r="1" fill="white"/>
  <circle cx="8" cy="1" r="1" fill="white"/>
  <circle cx="9" cy="1" r="1" fill="white"/>
  <circle cx="10" cy="1" r="1" fill="white"/>
  <circle cx="11" cy="1" r="1" fill="white"/>
  <circle cx="12" cy="1" r="1" fill="white"/>
  <circle cx="13" cy="1" r="1" fill="white"/>
  <circle cx="14" cy="1" r="1" fill="white"/>
  <circle cx="15" cy="1" r="1" fill="white"/>
  <circle cx="16" cy="1" r="1" fill="white"/>
  <circle cx="17" cy="1" r="1" fill="white"/>
  <circle cx="18" cy="1" r="1" fill="white"/>
  <circle cx="19" cy="1" r="1" fill="white"/>
  <circle cx="20" cy="1" r="1" fill="white"/>
  <circle cx="21" cy="1" r="1" fill="white"/>
  <circle cx="22" cy="1" r="1" fill="white"/>
  <circle cx="0" cy="2" r="1" fill="white"/>
  <circle cx="1" cy="2" r="1" fill="white"/>
  <circle cx="2" cy="2" r="1" fill="rgb(255,255,255)"/>
  <circle cx="3" cy="2" r="1" fill="rgb(254,254,255)"/>
  <circle cx="4" cy="2" r="1" fill="rgb(253,253,254)"/>
  <circle cx="5" cy="2" r="1" fill="rgb(253,253,254)"/>
  <circle cx="6" cy="2" r="1" fill="rgb(253,253,254)"/>
  <circle cx="7" cy="2" r="1" fill="rgb(253,253,254)"/>
  <circle cx="8" cy="2" r="1" fill="rgb(253,253,254)"/>
  <circle cx="9" cy="2" r="1" fill="rgb(253,253,254)"/>
  <circle cx="10" cy="2" r="1" fill="rgb(253,253,254)"/>
  <circle cx="11" cy="2" r="1" fill="rgb(253,253,254)"/>
  <circle cx="12" cy="2" r="1" fill="rgb(253,253,254)"/>
  <circle cx="13" cy="2" r="1" fill="rgb(253,253,254)"/>
  <circle cx="14" cy="2" r="1" fill="rgb(253,253,254)"/>
  <circle cx="15" cy="2" r="1" fill="rgb(253,253,254)"/>
  <circle cx="16" cy="2" r="1" fill="rgb(253,253,254)"/>
  <circle cx="17" cy="2" r="1" fill="rgb(253,253,254)"/>
  <circle cx="18" cy="2" r="1" fill="rgb(253,253,254)"/>
  <circle cx="19" cy="2" r="1" fill="rgb(253,253,254)"/>
  <circle cx="20" cy="2" r="1" fill="rgb(254,254,254)"/>
  <circle cx="21" cy="2" r="1" fill="rgb(255,255,255)"/>
  <circle cx="22" cy="2" r="1" fill="rgb(255,255,255)"/>
  <circle cx="0" cy="3" r="1" fill="white"/>
  <circle cx="1" cy="3" r="1" fill="white"/>
  <circle cx="2" cy="3" r="1" fill="rgb(254,254,255)"/>
  <circle cx="3" cy="3" r="1" fill="rgb(194,195,225)"/>
  <circle cx="4" cy="3" r="1" fill="rgb(93,114,202)"/>
  <circle cx="5" cy="3" r="1" fill="rgb(79,103,196)"/>
  <circle cx="6" cy="3" r="1" fill="rgb(88,107,194)"/>
  <circle cx="7" cy="3" r="1" fill="rgb(88,106,194)"/>
  <circle cx="8" cy="3" r="1" fill="rgb(87,105,193)"/>
  <circle cx="9" cy="3" r="1" fill="rgb(86,105,193)"/>
  <circle cx="10" cy="3" r="1" fill="rgb(86,105,193)"/>
  <circle cx="11" cy="3" r="1" fill="rgb(86,104,191)"/>
  <circle cx="12" cy="3" r="1" fill="rgb(86,104,191)"/>
  <circle cx="13" cy="3" r="1" fill="rgb(86,104,190)"/>
  <circle cx="14" cy="3" r="1" fill="rgb(86,104,190)"/>
  <circle cx="15" cy="3" r="1" fill="rgb(86,103,190)"/>
  <circle cx="16" cy="3" r="1" fill="rgb(86,104,189)"/>
  <circle cx="17" cy="3" r="1" fill="rgb(84,103,188)"/>
  <circle cx="18" cy="3" r="1" fill="rgb(75,98,192)"/>
  <circle cx="19" cy="3" r="1" fill="rgb(80,107,202)"/>
  <circle cx="20" cy="3" r="1" fill="rgb(169,172,208)"/>
  <circle cx="21" cy="3" r="1" fill="rgb(242,242,243)"/>
  <circle cx="22" cy="3" r="1" fill="rgb(252,252,252)"/>
  <circle cx="0" cy="4" r="1" fill="white"/>
  <circle cx="1" cy="4" r="1" fill="white"/>
  <circle cx="2" cy="4" r="1" fill="rgb(253,253,254)"/>
  <circle cx="3" cy="4" r="1" fill="rgb(89,113,203)"/>
  <circle cx="4" cy="4" r="1" fill="rgb(89,149,232)"/>
  <circle cx="5" cy="4" r="1" fill="rgb(141,177,228)"/>
  <circle cx="6" cy="4" r="1" fill="rgb(195,206,234)"/>
  <circle cx="7" cy="4" r="1" fill="rgb(203,214,240)"/>
  <circle cx="8" cy="4" r="1" fill="rgb(198,210,240)"/>
  <circle cx="9" cy="4" r="1" fill="rgb(194,207,239)"/>
  <circle cx="10" cy="4" r="1" fill="rgb(191,204,239)"/>
  <circle cx="11" cy="4" r="1" fill="rgb(190,204,239)"/>
  <circle cx="12" cy="4" r="1" fill="rgb(192,206,238)"/>
  <circle cx="13" cy="4" r="1" fill="rgb(194,207,238)"/>
  <circle cx="14" cy="4" r="1" fill="rgb(196,208,237)"/>
  <circle cx="15" cy="4" r="1" fill="rgb(199,210,236)"/>
  <circle cx="16" cy="4" r="1" fill="rgb(203,213,236)"/>
  <circle cx="17" cy="4" r="1" fill="rgb(194,203,228)"/>
  <circle cx="18" cy="4" r="1" fill="rgb(124,157,211)"/>
  <circle cx="19" cy="4" r="1" fill="rgb(55,123,226)"/>
  <circle cx="20" cy="4" r="1" fill="rgb(64,95,194)"/>
  <circle cx="21" cy="4" r="1" fill="rgb(207,208,211)"/>
  <circle cx="22" cy="4" r="1" fill="rgb(241,241,241)"/>
  <circle cx="0" cy="5" r="1" fill="white"/>
  <circle cx="1" cy="5" r="1" fill="white"/>
  <circle cx="2" cy="5" r="1" fill="rgb(253,253,254)"/>
  <circle cx="3" cy="5" r="1" fill="rgb(71,103,205)"/>
  <circle cx="4" cy="5" r="1" fill="rgb(103,168,244)"/>
  <circle cx="5" cy="5" r="1" fill="rgb(170,204,239)"/>
  <circle cx="6" cy="5" r="1" fill="rgb(238,242,249)"/>
  <circle cx="7" cy="5" r="1" fill="rgb(251,252,255)"/>
  <circle cx="8" cy="5" r="1" fill="rgb(243,247,255)"/>
  <circle cx="9" cy="5" r="1" fill="rgb(238,244,255)"/>
  <circle cx="10" cy="5" r="1" fill="rgb(234,241,255)"/>
  <circle cx="11" cy="5" r="1" fill="rgb(231,239,255)"/>
  <circle cx="12" cy="5" r="1" fill="rgb(232,239,255)"/>
  <circle cx="13" cy="5" r="1" fill="rgb(234,242,255)"/>
  <circle cx="14" cy="5" r="1" fill="rgb(238,244,255)"/>
  <circle cx="15" cy="5" r="1" fill="rgb(241,247,255)"/>
  <circle cx="16" cy="5" r="1" fill="rgb(249,252,255)"/>
  <circle cx="17" cy="5" r="1" fill="rgb(236,240,245)"/>
  <circle cx="18" cy="5" r="1" fill="rgb(146,177,214)"/>
  <circle cx="19" cy="5" r="1" fill="rgb(46,119,214)"/>
  <circle cx="20" cy="5" r="1" fill="rgb(41,83,190)"/>
  <circle cx="21" cy="5" r="1" fill="rgb(172,173,177)"/>
  <circle cx="22" cy="5" r="1" fill="rgb(226,226,226)"/>
  <circle cx="0" cy="6" r="1" fill="white"/>
  <circle cx="1" cy="6" r="1" fill="white"/>
  <circle cx="2" cy="6" r="1" fill="rgb(253,253,254)"/>
  <circle cx="3" cy="6" r="1" fill="rgb(74,107,205)"/>
  <circle cx="4" cy="6" r="1" fill="rgb(101,166,243)"/>
  <circle cx="5" cy="6" r="1" fill="rgb(171,203,240)"/>
  <circle cx="6" cy="6" r="1" fill="rgb(238,242,248)"/>
  <circle cx="7" cy="6" r="1" fill="rgb(252,252,255)"/>
  <circle cx="8" cy="6" r="1" fill="rgb(244,247,255)"/>
  <circle cx="9" cy="6" r="1" fill="rgb(239,244,255)"/>
  <circle cx="10" cy="6" r="1" fill="rgb(236,241,255)"/>
  <circle cx="11" cy="6" r="1" fill="rgb(232,238,255)"/>
  <circle cx="12" cy="6" r="1" fill="rgb(229,236,255)"/>
  <circle cx="13" cy="6" r="1" fill="rgb(229,236,255)"/>
  <circle cx="14" cy="6" r="1" fill="rgb(232,239,255)"/>
  <circle cx="15" cy="6" r="1" fill="rgb(236,242,255)"/>
  <circle cx="16" cy="6" r="1" fill="rgb(243,246,255)"/>
  <circle cx="17" cy="6" r="1" fill="rgb(232,235,244)"/>
  <circle cx="18" cy="6" r="1" fill="rgb(147,178,218)"/>
  <circle cx="19" cy="6" r="1" fill="rgb(58,136,237)"/>
  <circle cx="20" cy="6" r="1" fill="rgb(45,89,198)"/>
  <circle cx="21" cy="6" r="1" fill="rgb(156,157,160)"/>
  <circle cx="22" cy="6" r="1" fill="rgb(218,218,218)"/>
  <circle cx="0" cy="7" r="1" fill="white"/>
  <circle cx="1" cy="7" r="1" fill="white"/>
  <circle cx="2" cy="7" r="1" fill="rgb(253,253,254)"/>
  <circle cx="3" cy="7" r="1" fill="rgb(75,108,204)"/>
  <circle cx="4" cy="7" r="1" fill="rgb(98,164,243)"/>
  <circle cx="5" cy="7" r="1" fill="rgb(172,204,241)"/>
  <circle cx="6" cy="7" r="1" fill="rgb(239,243,248)"/>
  <circle cx="7" cy="7" r="1" fill="rgb(254,255,255)"/>
  <circle cx="8" cy="7" r="1" fill="rgb(248,250,255)"/>
  <circle cx="9" cy="7" r="1" fill="rgb(243,247,255)"/>
  <circle cx="10" cy="7" r="1" fill="rgb(239,244,255)"/>
  <circle cx="11" cy="7" r="1" fill="rgb(235,241,255)"/>
  <circle cx="12" cy="7" r="1" fill="rgb(231,238,255)"/>
  <circle cx="13" cy="7" r="1" fill="rgb(228,236,255)"/>
  <circle cx="14" cy="7" r="1" fill="rgb(228,236,255)"/>
  <circle cx="15" cy="7" r="1" fill="rgb(231,238,255)"/>
  <circle cx="16" cy="7" r="1" fill="rgb(238,243,255)"/>
  <circle cx="17" cy="7" r="1" fill="rgb(229,232,244)"/>
  <circle cx="18" cy="7" r="1" fill="rgb(150,181,221)"/>
  <circle cx="19" cy="7" r="1" fill="rgb(64,143,249)"/>
  <circle cx="20" cy="7" r="1" fill="rgb(47,92,201)"/>
  <circle cx="21" cy="7" r="1" fill="rgb(153,155,158)"/>
  <circle cx="22" cy="7" r="1" fill="rgb(216,216,216)"/>
  <circle cx="0" cy="8" r="1" fill="white"/>
  <circle cx="1" cy="8" r="1" fill="white"/>
  <circle cx="2" cy="8" r="1" fill="rgb(253,253,254)"/>
  <circle cx="3" cy="8" r="1" fill="rgb(77,109,204)"/>
  <circle cx="4" cy="8" r="1" fill="rgb(96,163,243)"/>
  <circle cx="5" cy="8" r="1" fill="rgb(174,206,242)"/>
  <circle cx="6" cy="8" r="1" fill="rgb(240,244,249)"/>
  <circle cx="7" cy="8" r="1" fill="rgb(255,255,255)"/>
  <circle cx="8" cy="8" r="1" fill="rgb(253,253,255)"/>
  <circle cx="9" cy="8" r="1" fill="rgb(248,250,255)"/>
  <circle cx="10" cy="8" r="1" fill="rgb(243,247,255)"/>
  <circle cx="11" cy="8" r="1" fill="rgb(239,244,255)"/>
  <circle cx="12" cy="8" r="1" fill="rgb(235,241,255)"/>
  <circle cx="13" cy="8" r="1" fill="rgb(231,238,255)"/>
  <circle cx="14" cy="8" r="1" fill="rgb(228,236,255)"/>
  <circle cx="15" cy="8" r="1" fill="rgb(228,236,255)"/>
  <circle cx="16" cy="8" r="1" fill="rgb(234,240,255)"/>
  <circle cx="17" cy="8" r="1" fill="rgb(226,231,244)"/>
  <circle cx="18" cy="8" r="1" fill="rgb(152,183,223)"/>
  <circle cx="19" cy="8" r="1" fill="rgb(61,141,248)"/>
  <circle cx="20" cy="8" r="1" fill="rgb(48,92,200)"/>
  <circle cx="21" cy="8" r="1" fill="rgb(154,155,158)"/>
  <circle cx="22" cy="8" r="1" fill="rgb(217,217,217)"/>
  <circle cx="0" cy="9" r="1" fill="white"/>
  <circle cx="1" cy="9" r="1" fill="white"/>
  <circle cx="2" cy="9" r="1" fill="rgb(253,253,254)"/>
  <circle cx="3" cy="9" r="1" fill="rgb(79,110,204)"/>
  <circle cx="4" cy="9" r="1" fill="rgb(95,162,243)"/>
  <circle cx="5" cy="9" r="1" fill="rgb(176,209,244)"/>
  <circle cx="6" cy="9" r="1" fill="rgb(240,245,250)"/>
  <circle cx="7" cy="9" r="1" fill="rgb(255,255,255)"/>
  <circle cx="8" cy="9" r="1" fill="rgb(255,255,255)"/>
  <circle cx="9" cy="9" r="1" fill="rgb(253,253,255)"/>
  <circle cx="10" cy="9" r="1" fill="rgb(249,251,255)"/>
  <circle cx="11" cy="9" r="1" fill="rgb(244,248,255)"/>
  <circle cx="12" cy="9" r="1" fill="rgb(240,245,255)"/>
  <circle cx="13" cy="9" r="1" fill="rgb(236,242,255)"/>
  <circle cx="14" cy="9" r="1" fill="rgb(232,239,255)"/>
  <circle cx="15" cy="9" r="1" fill="rgb(228,236,255)"/>
  <circle cx="16" cy="9" r="1" fill="rgb(231,238,255)"/>
  <circle cx="17" cy="9" r="1" fill="rgb(224,230,246)"/>
  <circle cx="18" cy="9" r="1" fill="rgb(153,184,225)"/>
  <circle cx="19" cy="9" r="1" fill="rgb(60,140,248)"/>
  <circle cx="20" cy="9" r="1" fill="rgb(49,93,200)"/>
  <circle cx="21" cy="9" r="1" fill="rgb(154,155,158)"/>
  <circle cx="22" cy="9" r="1" fill="rgb(217,217,217)"/>
  <circle cx="0" cy="10" r="1" fill="white"/>
  <circle cx="1" cy="10" r="1" fill="white"/>
  <circle cx="2" cy="10" r="1" fill="rgb(253,253,254)"/>
  <circle cx="3" cy="10" r="1" fill="rgb(80,111,204)"/>
  <circle cx="4" cy="10" r="1" fill="rgb(93,161,243)"/>
  <circle cx="5" cy="10" r="1" fill="rgb(182,212,245)"/>
  <circle cx="6" cy="10" r="1" fill="rgb(245,247,250)"/>
  <circle cx="7" cy="10" r="1" fill="rgb(255,255,253)"/>
  <circle cx="8" cy="10" r="1" fill="rgb(255,255,253)"/>
  <circle cx="9" cy="10" r="1" fill="rgb(255,255,253)"/>
  <circle cx="10" cy="10" r="1" fill="rgb(255,255,253)"/>
  <circle cx="11" cy="10" r="1" fill="rgb(254,253,253)"/>
  <circle cx="12" cy="10" r="1" fill="rgb(250,249,253)"/>
  <circle cx="13" cy="10" r="1" fill="rgb(245,246,252)"/>
  <circle cx="14" cy="10" r="1" fill="rgb(241,243,252)"/>
  <circle cx="15" cy="10" r="1" fill="rgb(237,240,252)"/>
  <circle cx="16" cy="10" r="1" fill="rgb(236,239,252)"/>
  <circle cx="17" cy="10" r="1" fill="rgb(227,230,242)"/>
  <circle cx="18" cy="10" r="1" fill="rgb(158,187,224)"/>
  <circle cx="19" cy="10" r="1" fill="rgb(58,139,248)"/>
  <circle cx="20" cy="10" r="1" fill="rgb(51,94,200)"/>
  <circle cx="21" cy="10" r="1" fill="rgb(154,155,158)"/>
  <circle cx="22" cy="10" r="1" fill="rgb(217,217,217)"/>
  <circle cx="0" cy="11" r="1" fill="white"/>
  <circle cx="1" cy="11" r="1" fill="white"/>
  <circle cx="2" cy="11" r="1" fill="rgb(253,253,254)"/>
  <circle cx="3" cy="11" r="1" fill="rgb(81,112,204)"/>
  <circle cx="4" cy="11" r="1" fill="rgb(93,160,243)"/>
  <circle cx="5" cy="11" r="1" fill="rgb(170,207,248)"/>
  <circle cx="6" cy="11" r="1" fill="rgb(218,231,246)"/>
  <circle cx="7" cy="11" r="1" fill="rgb(225,237,247)"/>
  <circle cx="8" cy="11" r="1" fill="rgb(222,235,246)"/>
  <circle cx="9" cy="11" r="1" fill="rgb(222,234,245)"/>
  <circle cx="10" cy="11" r="1" fill="rgb(220,233,244)"/>
  <circle cx="11" cy="11" r="1" fill="rgb(219,230,243)"/>
  <circle cx="12" cy="11" r="1" fill="rgb(216,227,242)"/>
  <circle cx="13" cy="11" r="1" fill="rgb(212,225,241)"/>
  <circle cx="14" cy="11" r="1" fill="rgb(209,222,239)"/>
  <circle cx="15" cy="11" r="1" fill="rgb(206,220,238)"/>
  <circle cx="16" cy="11" r="1" fill="rgb(204,217,237)"/>
  <circle cx="17" cy="11" r="1" fill="rgb(197,210,231)"/>
  <circle cx="18" cy="11" r="1" fill="rgb(146,183,229)"/>
  <circle cx="19" cy="11" r="1" fill="rgb(57,139,248)"/>
  <circle cx="20" cy="11" r="1" fill="rgb(51,95,200)"/>
  <circle cx="21" cy="11" r="1" fill="rgb(154,155,158)"/>
  <circle cx="22" cy="11" r="1" fill="rgb(217,217,217)"/>
  <circle cx="0" cy="12" r="1" fill="white"/>
  <circle cx="1" cy="12" r="1" fill="white"/>
  <circle cx="2" cy="12" r="1" fill="rgb(253,253,254)"/>
  <circle cx="3" cy="12" r="1" fill="rgb(83,113,204)"/>
  <circle cx="4" cy="12" r="1" fill="rgb(93,160,243)"/>
  <circle cx="5" cy="12" r="1" fill="rgb(126,185,253)"/>
  <circle cx="6" cy="12" r="1" fill="rgb(134,184,250)"/>
  <circle cx="7" cy="12" r="1" fill="rgb(127,178,248)"/>
  <circle cx="8" cy="12" r="1" fill="rgb(122,174,248)"/>
  <circle cx="9" cy="12" r="1" fill="rgb(120,172,247)"/>
  <circle cx="10" cy="12" r="1" fill="rgb(117,170,246)"/>
  <circle cx="11" cy="12" r="1" fill="rgb(115,168,244)"/>
  <circle cx="12" cy="12" r="1" fill="rgb(113,166,244)"/>
  <circle cx="13" cy="12" r="1" fill="rgb(110,164,243)"/>
  <circle cx="14" cy="12" r="1" fill="rgb(107,162,242)"/>
  <circle cx="15" cy="12" r="1" fill="rgb(107,162,241)"/>
  <circle cx="16" cy="12" r="1" fill="rgb(110,165,240)"/>
  <circle cx="17" cy="12" r="1" fill="rgb(109,165,239)"/>
  <circle cx="18" cy="12" r="1" fill="rgb(93,159,245)"/>
  <circle cx="19" cy="12" r="1" fill="rgb(53,136,248)"/>
  <circle cx="20" cy="12" r="1" fill="rgb(53,96,200)"/>
  <circle cx="21" cy="12" r="1" fill="rgb(154,155,158)"/>
  <circle cx="22" cy="12" r="1" fill="rgb(217,217,217)"/>
  <circle cx="0" cy="13" r="1" fill="white"/>
  <circle cx="1" cy="13" r="1" fill="white"/>
  <circle cx="2" cy="13" r="1" fill="rgb(253,253,254)"/>
  <circle cx="3" cy="13" r="1" fill="rgb(85,114,204)"/>
  <circle cx="4" cy="13" r="1" fill="rgb(92,159,243)"/>
  <circle cx="5" cy="13" r="1" fill="rgb(91,167,255)"/>
  <circle cx="6" cy="13" r="1" fill="rgb(82,146,249)"/>
  <circle cx="7" cy="13" r="1" fill="rgb(101,153,244)"/>
  <circle cx="8" cy="13" r="1" fill="rgb(111,160,245)"/>
  <circle cx="9" cy="13" r="1" fill="rgb(107,158,245)"/>
  <circle cx="10" cy="13" r="1" fill="rgb(102,155,244)"/>
  <circle cx="11" cy="13" r="1" fill="rgb(100,153,244)"/>
  <circle cx="12" cy="13" r="1" fill="rgb(99,151,245)"/>
  <circle cx="13" cy="13" r="1" fill="rgb(98,151,245)"/>
  <circle cx="14" cy="13" r="1" fill="rgb(96,150,244)"/>
  <circle cx="15" cy="13" r="1" fill="rgb(73,132,245)"/>
  <circle cx="16" cy="13" r="1" fill="rgb(36,105,249)"/>
  <circle cx="17" cy="13" r="1" fill="rgb(42,123,254)"/>
  <circle cx="18" cy="13" r="1" fill="rgb(50,139,255)"/>
  <circle cx="19" cy="13" r="1" fill="rgb(49,133,248)"/>
  <circle cx="20" cy="13" r="1" fill="rgb(56,97,199)"/>
  <circle cx="21" cy="13" r="1" fill="rgb(154,155,158)"/>
  <circle cx="22" cy="13" r="1" fill="rgb(217,217,217)"/>
  <circle cx="0" cy="14" r="1" fill="white"/>
  <circle cx="1" cy="14" r="1" fill="white"/>
  <circle cx="2" cy="14" r="1" fill="rgb(253,253,254)"/>
  <circle cx="3" cy="14" r="1" fill="rgb(87,115,204)"/>
  <circle cx="4" cy="14" r="1" fill="rgb(90,157,243)"/>
  <circle cx="5" cy="14" r="1" fill="rgb(84,161,255)"/>
  <circle cx="6" cy="14" r="1" fill="rgb(105,149,238)"/>
  <circle cx="7" cy="14" r="1" fill="rgb(188,197,230)"/>
  <circle cx="8" cy="14" r="1" fill="rgb(208,211,230)"/>
  <circle cx="9" cy="14" r="1" fill="rgb(201,206,230)"/>
  <circle cx="10" cy="14" r="1" fill="rgb(206,211,231)"/>
  <circle cx="11" cy="14" r="1" fill="rgb(208,213,233)"/>
  <circle cx="12" cy="14" r="1" fill="rgb(207,212,233)"/>
  <circle cx="13" cy="14" r="1" fill="rgb(209,214,233)"/>
  <circle cx="14" cy="14" r="1" fill="rgb(209,214,231)"/>
  <circle cx="15" cy="14" r="1" fill="rgb(145,162,229)"/>
  <circle cx="16" cy="14" r="1" fill="rgb(32,79,237)"/>
  <circle cx="17" cy="14" r="1" fill="rgb(38,109,250)"/>
  <circle cx="18" cy="14" r="1" fill="rgb(49,139,255)"/>
  <circle cx="19" cy="14" r="1" fill="rgb(47,131,248)"/>
  <circle cx="20" cy="14" r="1" fill="rgb(57,98,199)"/>
  <circle cx="21" cy="14" r="1" fill="rgb(154,155,158)"/>
  <circle cx="22" cy="14" r="1" fill="rgb(217,217,217)"/>
  <circle cx="0" cy="15" r="1" fill="white"/>
  <circle cx="1" cy="15" r="1" fill="white"/>
  <circle cx="2" cy="15" r="1" fill="rgb(253,253,254)"/>
  <circle cx="3" cy="15" r="1" fill="rgb(88,116,204)"/>
  <circle cx="4" cy="15" r="1" fill="rgb(88,156,243)"/>
  <circle cx="5" cy="15" r="1" fill="rgb(78,157,255)"/>
  <circle cx="6" cy="15" r="1" fill="rgb(116,158,236)"/>
  <circle cx="7" cy="15" r="1" fill="rgb(215,217,229)"/>
  <circle cx="8" cy="15" r="1" fill="rgb(173,181,228)"/>
  <circle cx="9" cy="15" r="1" fill="rgb(162,173,226)"/>
  <circle cx="10" cy="15" r="1" fill="rgb(224,225,231)"/>
  <circle cx="11" cy="15" r="1" fill="rgb(247,244,235)"/>
  <circle cx="12" cy="15" r="1" fill="rgb(241,239,235)"/>
  <circle cx="13" cy="15" r="1" fill="rgb(244,241,235)"/>
  <circle cx="14" cy="15" r="1" fill="rgb(243,240,233)"/>
  <circle cx="15" cy="15" r="1" fill="rgb(173,185,229)"/>
  <circle cx="16" cy="15" r="1" fill="rgb(50,97,238)"/>
  <circle cx="17" cy="15" r="1" fill="rgb(44,116,251)"/>
  <circle cx="18" cy="15" r="1" fill="rgb(45,136,255)"/>
  <circle cx="19" cy="15" r="1" fill="rgb(44,130,248)"/>
  <circle cx="20" cy="15" r="1" fill="rgb(58,99,199)"/>
  <circle cx="21" cy="15" r="1" fill="rgb(154,155,158)"/>
  <circle cx="22" cy="15" r="1" fill="rgb(217,217,217)"/>
  <circle cx="0" cy="16" r="1" fill="white"/>
  <circle cx="1" cy="16" r="1" fill="white"/>
  <circle cx="2" cy="16" r="1" fill="rgb(253,253,254)"/>
  <circle cx="3" cy="16" r="1" fill="rgb(90,117,204)"/>
  <circle cx="4" cy="16" r="1" fill="rgb(85,155,243)"/>
  <circle cx="5" cy="16" r="1" fill="rgb(75,156,255)"/>
  <circle cx="6" cy="16" r="1" fill="rgb(109,152,234)"/>
  <circle cx="7" cy="16" r="1" fill="rgb(192,198,220)"/>
  <circle cx="8" cy="16" r="1" fill="rgb(72,97,224)"/>
  <circle cx="9" cy="16" r="1" fill="rgb(54,86,223)"/>
  <circle cx="10" cy="16" r="1" fill="rgb(185,191,223)"/>
  <circle cx="11" cy="16" r="1" fill="rgb(233,230,227)"/>
  <circle cx="12" cy="16" r="1" fill="rgb(220,220,227)"/>
  <circle cx="13" cy="16" r="1" fill="rgb(222,222,227)"/>
  <circle cx="14" cy="16" r="1" fill="rgb(221,220,225)"/>
  <circle cx="15" cy="16" r="1" fill="rgb(165,178,224)"/>
  <circle cx="16" cy="16" r="1" fill="rgb(65,112,239)"/>
  <circle cx="17" cy="16" r="1" fill="rgb(50,123,252)"/>
  <circle cx="18" cy="16" r="1" fill="rgb(41,132,255)"/>
  <circle cx="19" cy="16" r="1" fill="rgb(41,127,248)"/>
  <circle cx="20" cy="16" r="1" fill="rgb(59,100,199)"/>
  <circle cx="21" cy="16" r="1" fill="rgb(154,155,158)"/>
  <circle cx="22" cy="16" r="1" fill="rgb(217,217,217)"/>
  <circle cx="0" cy="17" r="1" fill="white"/>
  <circle cx="1" cy="17" r="1" fill="white"/>
  <circle cx="2" cy="17" r="1" fill="rgb(253,253,254)"/>
  <circle cx="3" cy="17" r="1" fill="rgb(91,119,205)"/>
  <circle cx="4" cy="17" r="1" fill="rgb(83,153,243)"/>
  <circle cx="5" cy="17" r="1" fill="rgb(73,154,255)"/>
  <circle cx="6" cy="17" r="1" fill="rgb(103,147,230)"/>
  <circle cx="7" cy="17" r="1" fill="rgb(181,187,212)"/>
  <circle cx="8" cy="17" r="1" fill="rgb(79,100,220)"/>
  <circle cx="9" cy="17" r="1" fill="rgb(63,91,219)"/>
  <circle cx="10" cy="17" r="1" fill="rgb(175,182,216)"/>
  <circle cx="11" cy="17" r="1" fill="rgb(218,215,219)"/>
  <circle cx="12" cy="17" r="1" fill="rgb(207,207,218)"/>
  <circle cx="13" cy="17" r="1" fill="rgb(209,209,219)"/>
  <circle cx="14" cy="17" r="1" fill="rgb(208,207,216)"/>
  <circle cx="15" cy="17" r="1" fill="rgb(163,175,219)"/>
  <circle cx="16" cy="17" r="1" fill="rgb(81,128,241)"/>
  <circle cx="17" cy="17" r="1" fill="rgb(56,130,254)"/>
  <circle cx="18" cy="17" r="1" fill="rgb(36,128,255)"/>
  <circle cx="19" cy="17" r="1" fill="rgb(38,125,248)"/>
  <circle cx="20" cy="17" r="1" fill="rgb(61,101,200)"/>
  <circle cx="21" cy="17" r="1" fill="rgb(154,155,158)"/>
  <circle cx="22" cy="17" r="1" fill="rgb(217,217,217)"/>
  <circle cx="0" cy="18" r="1" fill="white"/>
  <circle cx="1" cy="18" r="1" fill="white"/>
  <circle cx="2" cy="18" r="1" fill="rgb(253,253,254)"/>
  <circle cx="3" cy="18" r="1" fill="rgb(92,119,205)"/>
  <circle cx="4" cy="18" r="1" fill="rgb(81,153,244)"/>
  <circle cx="5" cy="18" r="1" fill="rgb(70,154,255)"/>
  <circle cx="6" cy="18" r="1" fill="rgb(95,140,227)"/>
  <circle cx="7" cy="18" r="1" fill="rgb(171,177,205)"/>
  <circle cx="8" cy="18" r="1" fill="rgb(129,142,204)"/>
  <circle cx="9" cy="18" r="1" fill="rgb(121,136,205)"/>
  <circle cx="10" cy="18" r="1" fill="rgb(179,181,207)"/>
  <circle cx="11" cy="18" r="1" fill="rgb(199,198,209)"/>
  <circle cx="12" cy="18" r="1" fill="rgb(194,194,209)"/>
  <circle cx="13" cy="18" r="1" fill="rgb(195,195,209)"/>
  <circle cx="14" cy="18" r="1" fill="rgb(194,193,206)"/>
  <circle cx="15" cy="18" r="1" fill="rgb(161,173,214)"/>
  <circle cx="16" cy="18" r="1" fill="rgb(98,147,243)"/>
  <circle cx="17" cy="18" r="1" fill="rgb(63,139,255)"/>
  <circle cx="18" cy="18" r="1" fill="rgb(32,126,255)"/>
  <circle cx="19" cy="18" r="1" fill="rgb(37,125,248)"/>
  <circle cx="20" cy="18" r="1" fill="rgb(62,102,200)"/>
  <circle cx="21" cy="18" r="1" fill="rgb(154,155,158)"/>
  <circle cx="22" cy="18" r="1" fill="rgb(217,217,217)"/>
  <circle cx="0" cy="19" r="1" fill="white"/>
  <circle cx="1" cy="19" r="1" fill="white"/>
  <circle cx="2" cy="19" r="1" fill="rgb(253,253,254)"/>
  <circle cx="3" cy="19" r="1" fill="rgb(100,122,201)"/>
  <circle cx="4" cy="19" r="1" fill="rgb(81,148,235)"/>
  <circle cx="5" cy="19" r="1" fill="rgb(69,150,249)"/>
  <circle cx="6" cy="19" r="1" fill="rgb(89,133,220)"/>
  <circle cx="7" cy="19" r="1" fill="rgb(162,167,200)"/>
  <circle cx="8" cy="19" r="1" fill="rgb(192,187,196)"/>
  <circle cx="9" cy="19" r="1" fill="rgb(186,184,198)"/>
  <circle cx="10" cy="19" r="1" fill="rgb(182,181,200)"/>
  <circle cx="11" cy="19" r="1" fill="rgb(180,180,200)"/>
  <circle cx="12" cy="19" r="1" fill="rgb(180,180,200)"/>
  <circle cx="13" cy="19" r="1" fill="rgb(181,181,200)"/>
  <circle cx="14" cy="19" r="1" fill="rgb(179,178,197)"/>
  <circle cx="15" cy="19" r="1" fill="rgb(156,168,207)"/>
  <circle cx="16" cy="19" r="1" fill="rgb(112,159,240)"/>
  <circle cx="17" cy="19" r="1" fill="rgb(71,143,248)"/>
  <circle cx="18" cy="19" r="1" fill="rgb(32,123,248)"/>
  <circle cx="19" cy="19" r="1" fill="rgb(40,123,239)"/>
  <circle cx="20" cy="19" r="1" fill="rgb(65,98,188)"/>
  <circle cx="21" cy="19" r="1" fill="rgb(155,156,159)"/>
  <circle cx="22" cy="19" r="1" fill="rgb(217,217,217)"/>
  <circle cx="0" cy="20" r="1" fill="white"/>
  <circle cx="1" cy="20" r="1" fill="white"/>
  <circle cx="2" cy="20" r="1" fill="rgb(254,254,254)"/>
  <circle cx="3" cy="20" r="1" fill="rgb(168,170,207)"/>
  <circle cx="4" cy="20" r="1" fill="rgb(95,120,198)"/>
  <circle cx="5" cy="20" r="1" fill="rgb(75,113,202)"/>
  <circle cx="6" cy="20" r="1" fill="rgb(84,105,184)"/>
  <circle cx="7" cy="20" r="1" fill="rgb(115,118,170)"/>
  <circle cx="8" cy="20" r="1" fill="rgb(126,125,169)"/>
  <circle cx="9" cy="20" r="1" fill="rgb(124,124,170)"/>
  <circle cx="10" cy="20" r="1" fill="rgb(124,124,170)"/>
  <circle cx="11" cy="20" r="1" fill="rgb(124,124,170)"/>
  <circle cx="12" cy="20" r="1" fill="rgb(124,124,170)"/>
  <circle cx="13" cy="20" r="1" fill="rgb(125,125,170)"/>
  <circle cx="14" cy="20" r="1" fill="rgb(123,123,169)"/>
  <circle cx="15" cy="20" r="1" fill="rgb(111,118,175)"/>
  <circle cx="16" cy="20" r="1" fill="rgb(92,117,195)"/>
  <circle cx="17" cy="20" r="1" fill="rgb(76,112,201)"/>
  <circle cx="18" cy="20" r="1" fill="rgb(59,102,201)"/>
  <circle cx="19" cy="20" r="1" fill="rgb(65,99,186)"/>
  <circle cx="20" cy="20" r="1" fill="rgb(94,97,139)"/>
  <circle cx="21" cy="20" r="1" fill="rgb(168,168,169)"/>
  <circle cx="22" cy="20" r="1" fill="rgb(224,224,224)"/>
  <circle cx="0" cy="21" r="1" fill="white"/>
  <circle cx="1" cy="21" r="1" fill="white"/>
  <circle cx="2" cy="21" r="1" fill="rgb(255,255,255)"/>
  <circle cx="3" cy="21" r="1" fill="rgb(241,241,242)"/>
  <circle cx="4" cy="21" r="1" fill="rgb(206,207,210)"/>
  <circle cx="5" cy="21" r="1" fill="rgb(173,174,177)"/>
  <circle cx="6" cy="21" r="1" fill="rgb(158,158,161)"/>
  <circle cx="7" cy="21" r="1" fill="rgb(156,156,157)"/>
  <circle cx="8" cy="21" r="1" fill="rgb(156,156,157)"/>
  <circle cx="9" cy="21" r="1" fill="rgb(156,156,157)"/>
  <circle cx="10" cy="21" r="1" fill="rgb(156,156,157)"/>
  <circle cx="11" cy="21" r="1" fill="rgb(156,156,157)"/>
  <circle cx="12" cy="21" r="1" fill="rgb(156,156,157)"/>
  <circle cx="13" cy="21" r="1" fill="rgb(156,156,157)"/>
  <circle cx="14" cy="21" r="1" fill="rgb(156,156,157)"/>
  <circle cx="15" cy="21" r="1" fill="rgb(155,156,157)"/>
  <circle cx="16" cy="21" r="1" fill="rgb(155,156,158)"/>
  <circle cx="17" cy="21" r="1" fill="rgb(154,155,158)"/>
  <circle cx="18" cy="21" r="1" fill="rgb(154,155,158)"/>
  <circle cx="19" cy="21" r="1" fill="rgb(156,157,160)"/>
  <circle cx="20" cy="21" r="1" fill="rgb(169,169,170)"/>
  <circle cx="21" cy="21" r="1" fill="rgb(202,202,202)"/>
  <circle cx="22" cy="21" r="1" fill="rgb(238,238,238)"/>
  <circle cx="0" cy="22" r="1" fill="white"/>
  <circle cx="1" cy="22" r="1" fill="white"/>
  <circle cx="2" cy="22" r="1" fill="rgb(255,255,255)"/>
  <circle cx="3" cy="22" r="1" fill="rgb(252,252,252)"/>
  <circle cx="4" cy="22" r="1" fill="rgb(241,241,241)"/>
  <circle cx="5" cy="22" r="1" fill="rgb(226,226,226)"/>
  <circle cx="6" cy="22" r="1" fill="rgb(218,218,218)"/>
  <circle cx="7" cy="22" r="1" fill="rgb(216,216,216)"/>
  <circle cx="8" cy="22" r="1" fill="rgb(217,217,217)"/>
  <circle cx="9" cy="22" r="1" fill="rgb(217,217,217)"/>
  <circle cx="10" cy="22" r="1" fill="rgb(217,217,217)"/>
  <circle cx="11" cy="22" r="1" fill="rgb(217,217,217)"/>
  <circle cx="12" cy="22" r="1" fill="rgb(217,217,217)"/>
  <circle cx="13" cy="22" r="1" fill="rgb(217,217,217)"/>
  <circle cx="14" cy="22" r="1" fill="rgb(217,217,217)"/>
  <circle cx="15" cy="22" r="1" fill="rgb(217,217,217)"/>
  <circle cx="16" cy="22" r="1" fill="rgb(217,217,217)"/>
  <circle cx="17" cy="22" r="1" fill="rgb(217,217,217)"/>
  <circle cx="18" cy="22" r="1" fill="rgb(217,217,217)"/>
  <circle cx="19" cy="22" r="1" fill="rgb(217,217,217)"/>
  <circle cx="20" cy="22" r="1" fill="rgb(224,224,224)"/>
  <circle cx="21" cy="22" r="1" fill="rgb(238,238,238)"/>
  <circle cx="22" cy="22" r="1" fill="rgb(250,250,250)"/>
</svg>
